<?xml version="1.0" encoding="UTF-8"?> <svg xmlns="http://www.w3.org/2000/svg" width="75" height="75" viewBox="0 0 75 75" fill="none"> <path d="M8.7499 4.99994H7.49995C6.80957 4.99994 6.25 5.55951 6.25 6.24989C6.25 6.94027 6.80957 7.49999 7.49995 7.49999H8.7499C9.44028 7.49999 9.99985 6.94042 9.99985 6.25004C9.99985 5.55966 9.44028 4.99994 8.7499 4.99994Z" fill="white"></path> <path d="M14.9999 4.99994H13.75C13.0596 4.99994 12.5 5.55951 12.5 6.24989C12.5 6.94027 13.0597 7.49984 13.75 7.49984H14.9999C15.6903 7.49984 16.2499 6.94027 16.2499 6.24989C16.2499 5.55951 15.6903 4.99994 14.9999 4.99994Z" fill="white"></path> <path d="M21.2501 4.99994H20.0002C19.3098 4.99994 18.7502 5.55951 18.7502 6.24989C18.7502 6.94027 19.3098 7.49984 20.0002 7.49984H21.2501C21.9405 7.49984 22.5001 6.94027 22.5001 6.24989C22.5001 5.55951 21.9404 4.99994 21.2501 4.99994Z" fill="white"></path> <path d="M59.9999 4.99994H26.2499C25.5596 4.99994 25 5.55951 25 6.24989C25 6.94027 25.5596 7.49984 26.2499 7.49984H59.9999C60.6903 7.49984 61.2499 6.94027 61.2499 6.24989C61.2499 5.55951 60.6903 4.99994 59.9999 4.99994Z" fill="white"></path> <path d="M72.5 45H71.25V38.7499C71.249 35.25 69.907 31.8834 67.5 29.3424V6.25005C67.4959 2.7999 64.7001 0.00410156 61.25 0H6.25005C2.7999 0.00410156 0.00410156 2.7999 0 6.25005V56.25C0.00410156 59.7 2.7999 62.4958 6.25005 62.5H40V66.25C40.0056 71.0802 43.9198 74.9946 48.75 75H66.25C71.0802 74.9944 74.9946 71.0802 75 66.25V47.5C75 46.1193 73.8807 45 72.5 45ZM68.75 38.7499V45H46.25V38.7499C46.25 32.5368 51.2868 27.5 57.4999 27.5C63.7131 27.5 68.75 32.5368 68.75 38.7499ZM2.50005 6.25005C2.50005 4.17905 4.17905 2.50005 6.25005 2.50005H61.2501C63.3211 2.50005 65.0001 4.17905 65.0001 6.25005V10H2.50005V6.25005ZM40 47.5V60H6.25005C4.17905 60 2.50005 58.321 2.50005 56.25V12.5H65.0001V27.2399C60.7771 24.4775 55.3793 24.2537 50.9421 26.6571C46.505 29.0604 43.7435 33.7037 43.75 38.7499V45H42.5001C41.1193 45 40 46.1193 40 47.5ZM72.5 50H68.75C68.0596 50 67.5 50.5595 67.5 51.2499C67.5 51.9403 68.0596 52.4999 68.75 52.4999H72.5V54.9999H68.75C68.0596 54.9999 67.5 55.5595 67.5 56.2499C67.5 56.9402 68.0596 57.4998 68.75 57.4998H72.5V60H68.75C68.0596 60 67.5 60.5596 67.5 61.25C67.5 61.9403 68.0596 62.4999 68.75 62.4999H72.5V65H68.75C68.0596 65 67.5 65.5597 67.5 66.2499C67.5 66.9403 68.0596 67.4999 68.75 67.4999H72.375C71.7769 70.4079 69.2188 72.4961 66.25 72.4998H48.75C45.7812 72.496 43.223 70.4079 42.625 67.4999H46.2501C46.9405 67.4999 47.5 66.9401 47.5 66.2499C47.5 65.5595 46.9405 65 46.2501 65H42.5001V62.4999H46.2501C46.9405 62.4999 47.5 61.9403 47.5 61.25C47.5 60.5596 46.9405 60 46.2501 60H42.5001V57.4999H46.2501C46.9405 57.4999 47.5 56.9404 47.5 56.25C47.5 55.5596 46.9405 55.0001 46.2501 55.0001H42.5001V52.5H46.2501C46.9405 52.5 47.5 51.9404 47.5 51.25C47.5 50.5597 46.9405 50.0001 46.2501 50.0001H42.5001V47.5H72.5001V50H72.5Z" fill="white"></path> <path d="M56.2499 61.02V63.75C56.2499 64.4404 56.8096 64.9999 57.4999 64.9999C58.1902 64.9999 58.7498 64.4404 58.7498 63.75V61.02C60.4706 60.4139 61.5031 58.6551 61.194 56.8572C60.885 55.0592 59.3242 53.7464 57.4999 53.7499C55.6755 53.7464 54.1147 55.0594 53.8057 56.8572C53.4966 58.6551 54.5292 60.4139 56.2499 61.02ZM57.4999 56.25C58.1902 56.25 58.7498 56.8097 58.7498 57.4999C58.7498 58.1903 58.1901 58.7499 57.4999 58.7499C56.8095 58.7499 56.2499 58.1902 56.2499 57.4999C56.2499 56.8097 56.8096 56.25 57.4999 56.25Z" fill="white"></path> <path d="M21.2498 25.0001C20.5594 25.0001 19.9999 25.5597 19.9999 26.2501V30.0001H9.9998V20H14.9998C15.6901 20 16.2497 19.4405 16.2497 18.7501C16.2497 18.0597 15.6901 17.5001 14.9998 17.5001H9.9998C8.61904 17.5001 7.49976 18.6194 7.49976 20.0002V30.0001C7.49976 31.3808 8.61904 32.5001 9.9998 32.5001H19.9999C21.3806 32.5001 22.4999 31.3808 22.4999 30.0001V26.2501C22.4998 25.5597 21.94 25.0001 21.2498 25.0001Z" fill="white"></path> <path d="M13.3838 22.8662C12.8933 22.3925 12.1136 22.3992 11.6315 22.8814C11.1493 23.3637 11.1426 24.1433 11.6163 24.6337L14.1163 27.1337C14.3507 27.3681 14.6686 27.4999 15.0001 27.4999H15.0563C15.407 27.4843 15.735 27.322 15.9601 27.0524L22.2102 19.5524C22.4964 19.2095 22.578 18.7399 22.4241 18.3204C22.2701 17.901 21.9042 17.5956 21.464 17.5191C21.0238 17.4426 20.5763 17.6068 20.2901 17.9499L14.9151 24.3999L13.3838 22.8662Z" fill="white"></path> <path d="M21.2498 46.25C20.5594 46.25 19.9999 46.8095 19.9999 47.4999V51.2499H9.9998V41.25H14.9998C15.6901 41.25 16.2497 40.6903 16.2497 40.0001C16.2497 39.3097 15.6901 38.7501 14.9998 38.7501H9.9998C8.61904 38.7501 7.49976 39.8694 7.49976 41.2502V51.2502C7.49976 52.631 8.61904 53.7503 9.9998 53.7503H19.9999C21.3806 53.7503 22.4999 52.631 22.4999 51.2502V47.5002C22.4998 46.8097 21.94 46.25 21.2498 46.25Z" fill="white"></path> <path d="M13.3838 44.1162C12.8933 43.6425 12.1136 43.6492 11.6315 44.1315C11.1493 44.6137 11.1426 45.3933 11.6163 45.8837L14.1163 48.3838C14.3507 48.6181 14.6686 48.75 15.0001 48.75H15.0563C15.407 48.7343 15.735 48.572 15.9601 48.3025L22.2102 40.8025C22.4964 40.4596 22.578 39.9899 22.4241 39.5705C22.2701 39.1512 21.9042 38.8457 21.464 38.7693C21.0238 38.6928 20.5763 38.857 20.2901 39.2001L14.9151 45.6501L13.3838 44.1162Z" fill="white"></path> <path d="M27.4997 21.25H37.4997C38.1901 21.25 38.7497 20.6905 38.7497 20.0001C38.7497 19.3097 38.1901 18.75 37.4997 18.75H27.4997C26.8093 18.75 26.2498 19.3096 26.2498 20C26.2498 20.6903 26.8095 21.25 27.4997 21.25Z" fill="white"></path> <path d="M44.9998 26.25C44.9998 25.5596 44.4402 25.0001 43.7498 25.0001H27.4997C26.8093 25.0001 26.2498 25.5596 26.2498 26.25C26.2498 26.9404 26.8093 27.5 27.4997 27.5H43.7497C44.4402 27.5 44.9998 26.9404 44.9998 26.25Z" fill="white"></path> <path d="M37.4997 40H27.4997C26.8093 40 26.2498 40.5597 26.2498 41.25C26.2498 41.9402 26.8093 42.4999 27.4997 42.4999H37.4997C38.1901 42.4999 38.7497 41.9403 38.7497 41.25C38.7497 40.5596 38.1901 40 37.4997 40Z" fill="white"></path> <path d="M36.2499 46.2499H27.4999C26.8096 46.2499 26.25 46.8095 26.25 47.4999C26.25 48.1903 26.8096 48.7498 27.4999 48.7498H36.2499C36.9403 48.7498 37.4998 48.1903 37.4998 47.4999C37.4998 46.8095 36.9403 46.2499 36.2499 46.2499Z" fill="white"></path> </svg> 