<svg width="30" height="30" viewBox="0 0 30 30" fill="none" xmlns="http://www.w3.org/2000/svg">
<path d="M18.8155 4.83776C11.7784 4.83776 7.63086 8.81528 7.63086 15.9204V29.1108H14.362V16.1244C14.362 12.0449 16.0618 10.4131 18.8835 10.4131C21.6712 10.4131 23.371 12.0449 23.371 16.1244V29.1108H30.0002V15.9204C30.0002 8.81528 25.8527 4.83776 18.8155 4.83776Z" fill="#00CCA6"/>
<path d="M11.1847 24.2731C4.1475 24.2731 0 20.2956 0 13.1904V0H6.73119V12.9864C6.73119 17.0659 8.43099 18.6977 11.2526 18.6977C14.0403 18.6977 15.7401 17.0659 15.7401 12.9864V0H22.3693V13.1904C22.3693 20.2956 18.2218 24.2731 11.1847 24.2731Z" fill="#00CCA6"/>
<path fill-rule="evenodd" clip-rule="evenodd" d="M7.63184 15.6905C7.72066 8.72963 11.8542 4.83789 18.815 4.83789C25.8522 4.83789 29.9997 8.81541 29.9997 15.9206V29.111H23.3705V16.1245C23.3705 12.045 21.6707 10.4132 18.883 10.4132C16.1636 10.4132 14.4863 11.9289 14.3682 15.6905H7.63184Z" fill="#00CCA6"/>
</svg>
